<svg id="visual" viewBox="0 0 900 600" width="900" height="600" xmlns="http://www.w3.org/2000/svg" xmlns:xlink="http://www.w3.org/1999/xlink" version="1.1"><rect x="0" y="0" width="900" height="600" fill="#001220"></rect><path d="M0 410L18.8 410.7C37.7 411.3 75.3 412.7 112.8 420.2C150.3 427.7 187.7 441.3 225.2 442.2C262.7 443 300.3 431 337.8 426C375.3 421 412.7 423 450.2 428C487.7 433 525.3 441 562.8 445.7C600.3 450.3 637.7 451.7 675.2 454.2C712.7 456.7 750.3 460.3 787.8 456.2C825.3 452 862.7 440 881.3 434L900 428L900 601L881.3 601C862.7 601 825.3 601 787.8 601C750.3 601 712.7 601 675.2 601C637.7 601 600.3 601 562.8 601C525.3 601 487.7 601 450.2 601C412.7 601 375.3 601 337.8 601C300.3 601 262.7 601 225.2 601C187.7 601 150.3 601 112.8 601C75.3 601 37.7 601 18.8 601L0 601Z" fill="#2b88b6"></path><path d="M0 468L18.8 464.2C37.7 460.3 75.3 452.7 112.8 456.2C150.3 459.7 187.7 474.3 225.2 481.8C262.7 489.3 300.3 489.7 337.8 492.7C375.3 495.7 412.7 501.3 450.2 502.2C487.7 503 525.3 499 562.8 490.5C600.3 482 637.7 469 675.2 464.7C712.7 460.3 750.3 464.7 787.8 468.7C825.3 472.7 862.7 476.3 881.3 478.2L900 480L900 601L881.3 601C862.7 601 825.3 601 787.8 601C750.3 601 712.7 601 675.2 601C637.7 601 600.3 601 562.8 601C525.3 601 487.7 601 450.2 601C412.7 601 375.3 601 337.8 601C300.3 601 262.7 601 225.2 601C187.7 601 150.3 601 112.8 601C75.3 601 37.7 601 18.8 601L0 601Z" fill="#006cb2"></path><path d="M0 500L18.8 506.5C37.7 513 75.3 526 112.8 523.5C150.3 521 187.7 503 225.2 499.8C262.7 496.7 300.3 508.3 337.8 511C375.3 513.7 412.7 507.3 450.2 505.5C487.7 503.7 525.3 506.3 562.8 512.5C600.3 518.7 637.7 528.3 675.2 527.2C712.7 526 750.3 514 787.8 506.5C825.3 499 862.7 496 881.3 494.5L900 493L900 601L881.3 601C862.7 601 825.3 601 787.8 601C750.3 601 712.7 601 675.2 601C637.7 601 600.3 601 562.8 601C525.3 601 487.7 601 450.2 601C412.7 601 375.3 601 337.8 601C300.3 601 262.7 601 225.2 601C187.7 601 150.3 601 112.8 601C75.3 601 37.7 601 18.8 601L0 601Z" fill="#004da6"></path><path d="M0 559L18.8 558.8C37.7 558.7 75.3 558.3 112.8 559C150.3 559.7 187.7 561.3 225.2 562.3C262.7 563.3 300.3 563.7 337.8 561.5C375.3 559.3 412.7 554.7 450.2 555.2C487.7 555.7 525.3 561.3 562.8 562.5C600.3 563.7 637.7 560.3 675.2 560.7C712.7 561 750.3 565 787.8 563.2C825.3 561.3 862.7 553.7 881.3 549.8L900 546L900 601L881.3 601C862.7 601 825.3 601 787.8 601C750.3 601 712.7 601 675.2 601C637.7 601 600.3 601 562.8 601C525.3 601 487.7 601 450.2 601C412.7 601 375.3 601 337.8 601C300.3 601 262.7 601 225.2 601C187.7 601 150.3 601 112.8 601C75.3 601 37.7 601 18.8 601L0 601Z" fill="#162992"></path></svg>